<mxfile host="app.diagrams.net" agent="Mozilla/5.0 (Windows NT 10.0; Win64; x64) AppleWebKit/537.36 (KHTML, like Gecko) Chrome/138.0.0.0 Safari/537.36" version="26.0.16">
  <diagram name="Page-1" id="nM-dldDdD_N14rBjMNAc">
    <mxGraphModel dx="1900" dy="557" grid="1" gridSize="10" guides="1" tooltips="1" connect="1" arrows="1" fold="1" page="1" pageScale="1" pageWidth="850" pageHeight="1100" math="0" shadow="0">
      <root>
        <mxCell id="0" />
        <mxCell id="1" parent="0" />
        <mxCell id="prlDXMXP5_5S73fxrrut-1" value="Student" style="rounded=0;whiteSpace=wrap;html=1;" vertex="1" parent="1">
          <mxGeometry x="-140" y="430" width="120" height="40" as="geometry" />
        </mxCell>
        <mxCell id="prlDXMXP5_5S73fxrrut-2" value="Teacher" style="rounded=0;whiteSpace=wrap;html=1;verticalAlign=middle;horizontal=1;" vertex="1" parent="1">
          <mxGeometry x="520" y="260" width="130" height="50" as="geometry" />
        </mxCell>
        <mxCell id="prlDXMXP5_5S73fxrrut-3" value="Questions" style="rounded=0;whiteSpace=wrap;html=1;" vertex="1" parent="1">
          <mxGeometry x="550" y="430" width="120" height="50" as="geometry" />
        </mxCell>
        <mxCell id="prlDXMXP5_5S73fxrrut-4" value="Score" style="rounded=0;whiteSpace=wrap;html=1;" vertex="1" parent="1">
          <mxGeometry x="20" y="630" width="130" height="50" as="geometry" />
        </mxCell>
        <mxCell id="prlDXMXP5_5S73fxrrut-5" value="Quizzes" style="rounded=0;whiteSpace=wrap;html=1;" vertex="1" parent="1">
          <mxGeometry x="410" y="630" width="130" height="50" as="geometry" />
        </mxCell>
        <mxCell id="prlDXMXP5_5S73fxrrut-6" value="Admin" style="rounded=0;whiteSpace=wrap;html=1;" vertex="1" parent="1">
          <mxGeometry x="-70" y="240" width="120" height="40" as="geometry" />
        </mxCell>
        <mxCell id="prlDXMXP5_5S73fxrrut-7" value="Mange" style="rhombus;whiteSpace=wrap;html=1;" vertex="1" parent="1">
          <mxGeometry x="240" y="240" width="75" height="50" as="geometry" />
        </mxCell>
        <mxCell id="prlDXMXP5_5S73fxrrut-9" value="Mange" style="rhombus;whiteSpace=wrap;html=1;" vertex="1" parent="1">
          <mxGeometry x="-100" y="320" width="75" height="50" as="geometry" />
        </mxCell>
        <mxCell id="prlDXMXP5_5S73fxrrut-10" value="View" style="rhombus;whiteSpace=wrap;html=1;" vertex="1" parent="1">
          <mxGeometry x="260" y="410" width="75" height="50" as="geometry" />
        </mxCell>
        <mxCell id="prlDXMXP5_5S73fxrrut-11" style="edgeStyle=orthogonalEdgeStyle;rounded=0;orthogonalLoop=1;jettySize=auto;html=1;exitX=0.5;exitY=1;exitDx=0;exitDy=0;" edge="1" parent="1" source="prlDXMXP5_5S73fxrrut-6" target="prlDXMXP5_5S73fxrrut-6">
          <mxGeometry relative="1" as="geometry" />
        </mxCell>
        <mxCell id="prlDXMXP5_5S73fxrrut-12" value="Take" style="rhombus;whiteSpace=wrap;html=1;" vertex="1" parent="1">
          <mxGeometry x="260" y="525" width="75" height="50" as="geometry" />
        </mxCell>
        <mxCell id="prlDXMXP5_5S73fxrrut-23" value="" style="endArrow=none;html=1;rounded=0;entryX=0.5;entryY=1;entryDx=0;entryDy=0;" edge="1" parent="1" target="prlDXMXP5_5S73fxrrut-6">
          <mxGeometry width="50" height="50" relative="1" as="geometry">
            <mxPoint x="-60" y="320" as="sourcePoint" />
            <mxPoint x="-10" y="270" as="targetPoint" />
          </mxGeometry>
        </mxCell>
        <mxCell id="prlDXMXP5_5S73fxrrut-24" value="" style="endArrow=none;html=1;rounded=0;entryX=0.5;entryY=1;entryDx=0;entryDy=0;" edge="1" parent="1" target="prlDXMXP5_5S73fxrrut-9">
          <mxGeometry width="50" height="50" relative="1" as="geometry">
            <mxPoint x="-105" y="430" as="sourcePoint" />
            <mxPoint x="-40" y="390" as="targetPoint" />
          </mxGeometry>
        </mxCell>
        <mxCell id="prlDXMXP5_5S73fxrrut-25" value="" style="endArrow=none;html=1;rounded=0;entryX=0;entryY=0.5;entryDx=0;entryDy=0;" edge="1" parent="1" target="prlDXMXP5_5S73fxrrut-7">
          <mxGeometry width="50" height="50" relative="1" as="geometry">
            <mxPoint x="50" y="260" as="sourcePoint" />
            <mxPoint x="115" y="220" as="targetPoint" />
          </mxGeometry>
        </mxCell>
        <mxCell id="prlDXMXP5_5S73fxrrut-26" value="" style="endArrow=none;html=1;rounded=0;entryX=0;entryY=0.25;entryDx=0;entryDy=0;exitX=1;exitY=0.5;exitDx=0;exitDy=0;" edge="1" parent="1" source="prlDXMXP5_5S73fxrrut-7" target="prlDXMXP5_5S73fxrrut-2">
          <mxGeometry width="50" height="50" relative="1" as="geometry">
            <mxPoint x="310" y="270" as="sourcePoint" />
            <mxPoint x="375" y="230" as="targetPoint" />
          </mxGeometry>
        </mxCell>
        <mxCell id="prlDXMXP5_5S73fxrrut-27" value="" style="endArrow=none;html=1;rounded=0;exitX=1;exitY=0.5;exitDx=0;exitDy=0;entryX=0;entryY=0.75;entryDx=0;entryDy=0;" edge="1" parent="1" source="prlDXMXP5_5S73fxrrut-10" target="prlDXMXP5_5S73fxrrut-2">
          <mxGeometry width="50" height="50" relative="1" as="geometry">
            <mxPoint x="350" y="430" as="sourcePoint" />
            <mxPoint x="530" y="320" as="targetPoint" />
          </mxGeometry>
        </mxCell>
        <mxCell id="prlDXMXP5_5S73fxrrut-28" value="" style="endArrow=none;html=1;rounded=0;entryX=0;entryY=1;entryDx=0;entryDy=0;exitX=0.5;exitY=0;exitDx=0;exitDy=0;" edge="1" parent="1" source="prlDXMXP5_5S73fxrrut-4" target="prlDXMXP5_5S73fxrrut-10">
          <mxGeometry width="50" height="50" relative="1" as="geometry">
            <mxPoint x="110" y="550" as="sourcePoint" />
            <mxPoint x="175" y="510" as="targetPoint" />
          </mxGeometry>
        </mxCell>
        <mxCell id="prlDXMXP5_5S73fxrrut-29" value="View" style="rhombus;whiteSpace=wrap;html=1;" vertex="1" parent="1">
          <mxGeometry x="-100" y="525" width="75" height="50" as="geometry" />
        </mxCell>
        <mxCell id="prlDXMXP5_5S73fxrrut-32" value="" style="endArrow=none;html=1;rounded=0;exitX=0.5;exitY=1;exitDx=0;exitDy=0;entryX=0.5;entryY=0;entryDx=0;entryDy=0;" edge="1" parent="1" source="prlDXMXP5_5S73fxrrut-1" target="prlDXMXP5_5S73fxrrut-29">
          <mxGeometry width="50" height="50" relative="1" as="geometry">
            <mxPoint x="270" y="460" as="sourcePoint" />
            <mxPoint x="320" y="410" as="targetPoint" />
          </mxGeometry>
        </mxCell>
        <mxCell id="prlDXMXP5_5S73fxrrut-33" value="" style="endArrow=none;html=1;rounded=0;exitX=1;exitY=1;exitDx=0;exitDy=0;entryX=0;entryY=0.25;entryDx=0;entryDy=0;" edge="1" parent="1" source="prlDXMXP5_5S73fxrrut-29" target="prlDXMXP5_5S73fxrrut-4">
          <mxGeometry width="50" height="50" relative="1" as="geometry">
            <mxPoint x="270" y="460" as="sourcePoint" />
            <mxPoint x="320" y="410" as="targetPoint" />
          </mxGeometry>
        </mxCell>
        <mxCell id="prlDXMXP5_5S73fxrrut-35" value="" style="endArrow=none;html=1;rounded=0;exitX=1;exitY=0.5;exitDx=0;exitDy=0;entryX=0;entryY=0.5;entryDx=0;entryDy=0;" edge="1" parent="1" source="prlDXMXP5_5S73fxrrut-1" target="prlDXMXP5_5S73fxrrut-12">
          <mxGeometry width="50" height="50" relative="1" as="geometry">
            <mxPoint x="270" y="460" as="sourcePoint" />
            <mxPoint x="320" y="410" as="targetPoint" />
          </mxGeometry>
        </mxCell>
        <mxCell id="prlDXMXP5_5S73fxrrut-36" value="" style="endArrow=none;html=1;rounded=0;exitX=1;exitY=0.5;exitDx=0;exitDy=0;entryX=0.5;entryY=0;entryDx=0;entryDy=0;" edge="1" parent="1" source="prlDXMXP5_5S73fxrrut-12" target="prlDXMXP5_5S73fxrrut-5">
          <mxGeometry width="50" height="50" relative="1" as="geometry">
            <mxPoint x="270" y="460" as="sourcePoint" />
            <mxPoint x="320" y="410" as="targetPoint" />
          </mxGeometry>
        </mxCell>
        <mxCell id="prlDXMXP5_5S73fxrrut-37" value="Add/Delete&lt;div&gt;/Update&lt;/div&gt;" style="rhombus;whiteSpace=wrap;html=1;verticalAlign=middle;horizontal=1;" vertex="1" parent="1">
          <mxGeometry x="582.5" y="330" width="87.5" height="70" as="geometry" />
        </mxCell>
        <mxCell id="prlDXMXP5_5S73fxrrut-38" value="" style="endArrow=none;html=1;rounded=0;entryX=0.75;entryY=1;entryDx=0;entryDy=0;exitX=0.5;exitY=0;exitDx=0;exitDy=0;" edge="1" parent="1" source="prlDXMXP5_5S73fxrrut-37" target="prlDXMXP5_5S73fxrrut-2">
          <mxGeometry width="50" height="50" relative="1" as="geometry">
            <mxPoint x="270" y="460" as="sourcePoint" />
            <mxPoint x="320" y="410" as="targetPoint" />
          </mxGeometry>
        </mxCell>
        <mxCell id="prlDXMXP5_5S73fxrrut-39" value="" style="endArrow=none;html=1;rounded=0;entryX=0.5;entryY=1;entryDx=0;entryDy=0;exitX=0.75;exitY=0;exitDx=0;exitDy=0;" edge="1" parent="1" source="prlDXMXP5_5S73fxrrut-3" target="prlDXMXP5_5S73fxrrut-37">
          <mxGeometry width="50" height="50" relative="1" as="geometry">
            <mxPoint x="270" y="460" as="sourcePoint" />
            <mxPoint x="320" y="410" as="targetPoint" />
          </mxGeometry>
        </mxCell>
        <mxCell id="prlDXMXP5_5S73fxrrut-40" value="Store" style="rhombus;whiteSpace=wrap;html=1;" vertex="1" parent="1">
          <mxGeometry x="250" y="630" width="75" height="50" as="geometry" />
        </mxCell>
        <mxCell id="prlDXMXP5_5S73fxrrut-41" value="" style="endArrow=none;html=1;rounded=0;exitX=1;exitY=0.5;exitDx=0;exitDy=0;entryX=0;entryY=0.5;entryDx=0;entryDy=0;" edge="1" parent="1" source="prlDXMXP5_5S73fxrrut-4" target="prlDXMXP5_5S73fxrrut-40">
          <mxGeometry width="50" height="50" relative="1" as="geometry">
            <mxPoint x="270" y="460" as="sourcePoint" />
            <mxPoint x="320" y="410" as="targetPoint" />
          </mxGeometry>
        </mxCell>
        <mxCell id="prlDXMXP5_5S73fxrrut-43" value="" style="endArrow=none;html=1;rounded=0;exitX=1;exitY=0.5;exitDx=0;exitDy=0;entryX=0;entryY=0.5;entryDx=0;entryDy=0;" edge="1" parent="1" source="prlDXMXP5_5S73fxrrut-40" target="prlDXMXP5_5S73fxrrut-5">
          <mxGeometry width="50" height="50" relative="1" as="geometry">
            <mxPoint x="270" y="460" as="sourcePoint" />
            <mxPoint x="320" y="410" as="targetPoint" />
          </mxGeometry>
        </mxCell>
        <mxCell id="prlDXMXP5_5S73fxrrut-44" value="Create" style="rhombus;whiteSpace=wrap;html=1;" vertex="1" parent="1">
          <mxGeometry x="420" y="430" width="75" height="50" as="geometry" />
        </mxCell>
        <mxCell id="prlDXMXP5_5S73fxrrut-45" value="" style="endArrow=none;html=1;rounded=0;entryX=0.25;entryY=1;entryDx=0;entryDy=0;exitX=0.5;exitY=0;exitDx=0;exitDy=0;" edge="1" parent="1" source="prlDXMXP5_5S73fxrrut-44" target="prlDXMXP5_5S73fxrrut-2">
          <mxGeometry width="50" height="50" relative="1" as="geometry">
            <mxPoint x="270" y="460" as="sourcePoint" />
            <mxPoint x="320" y="410" as="targetPoint" />
          </mxGeometry>
        </mxCell>
        <mxCell id="prlDXMXP5_5S73fxrrut-46" value="" style="endArrow=none;html=1;rounded=0;entryX=0.5;entryY=1;entryDx=0;entryDy=0;exitX=0.5;exitY=0;exitDx=0;exitDy=0;" edge="1" parent="1" source="prlDXMXP5_5S73fxrrut-5" target="prlDXMXP5_5S73fxrrut-44">
          <mxGeometry width="50" height="50" relative="1" as="geometry">
            <mxPoint x="270" y="460" as="sourcePoint" />
            <mxPoint x="320" y="410" as="targetPoint" />
          </mxGeometry>
        </mxCell>
        <mxCell id="prlDXMXP5_5S73fxrrut-49" value="&lt;u&gt;Quiz id&lt;/u&gt;" style="ellipse;whiteSpace=wrap;html=1;" vertex="1" parent="1">
          <mxGeometry x="540" y="520" width="60" height="40" as="geometry" />
        </mxCell>
        <mxCell id="prlDXMXP5_5S73fxrrut-50" value="" style="endArrow=none;html=1;rounded=0;exitX=0.5;exitY=0;exitDx=0;exitDy=0;entryX=0.5;entryY=1;entryDx=0;entryDy=0;" edge="1" parent="1" source="prlDXMXP5_5S73fxrrut-49" target="prlDXMXP5_5S73fxrrut-3">
          <mxGeometry width="50" height="50" relative="1" as="geometry">
            <mxPoint x="270" y="390" as="sourcePoint" />
            <mxPoint x="320" y="340" as="targetPoint" />
          </mxGeometry>
        </mxCell>
        <mxCell id="prlDXMXP5_5S73fxrrut-51" value="Correct&lt;div&gt;Answer&lt;/div&gt;" style="ellipse;whiteSpace=wrap;html=1;" vertex="1" parent="1">
          <mxGeometry x="610" y="520" width="60" height="40" as="geometry" />
        </mxCell>
        <mxCell id="prlDXMXP5_5S73fxrrut-52" value="Option 1" style="ellipse;whiteSpace=wrap;html=1;" vertex="1" parent="1">
          <mxGeometry x="710" y="410" width="60" height="40" as="geometry" />
        </mxCell>
        <mxCell id="prlDXMXP5_5S73fxrrut-53" value="Question" style="ellipse;whiteSpace=wrap;html=1;" vertex="1" parent="1">
          <mxGeometry x="470" y="500" width="60" height="40" as="geometry" />
        </mxCell>
        <mxCell id="prlDXMXP5_5S73fxrrut-54" value="" style="endArrow=none;html=1;rounded=0;exitX=0.5;exitY=0;exitDx=0;exitDy=0;" edge="1" parent="1" source="prlDXMXP5_5S73fxrrut-51">
          <mxGeometry width="50" height="50" relative="1" as="geometry">
            <mxPoint x="270" y="390" as="sourcePoint" />
            <mxPoint x="610" y="480" as="targetPoint" />
          </mxGeometry>
        </mxCell>
        <mxCell id="prlDXMXP5_5S73fxrrut-55" value="" style="endArrow=none;html=1;rounded=0;entryX=0.5;entryY=1;entryDx=0;entryDy=0;exitX=1;exitY=0.5;exitDx=0;exitDy=0;" edge="1" parent="1" source="prlDXMXP5_5S73fxrrut-53" target="prlDXMXP5_5S73fxrrut-3">
          <mxGeometry width="50" height="50" relative="1" as="geometry">
            <mxPoint x="270" y="390" as="sourcePoint" />
            <mxPoint x="320" y="340" as="targetPoint" />
          </mxGeometry>
        </mxCell>
        <mxCell id="prlDXMXP5_5S73fxrrut-56" value="Option 1" style="ellipse;whiteSpace=wrap;html=1;" vertex="1" parent="1">
          <mxGeometry x="710" y="460" width="60" height="40" as="geometry" />
        </mxCell>
        <mxCell id="prlDXMXP5_5S73fxrrut-57" value="Option 1" style="ellipse;whiteSpace=wrap;html=1;" vertex="1" parent="1">
          <mxGeometry x="710" y="510" width="60" height="40" as="geometry" />
        </mxCell>
        <mxCell id="prlDXMXP5_5S73fxrrut-58" value="" style="endArrow=none;html=1;rounded=0;entryX=0;entryY=0.5;entryDx=0;entryDy=0;exitX=1;exitY=0.5;exitDx=0;exitDy=0;" edge="1" parent="1" source="prlDXMXP5_5S73fxrrut-3" target="prlDXMXP5_5S73fxrrut-52">
          <mxGeometry width="50" height="50" relative="1" as="geometry">
            <mxPoint x="270" y="390" as="sourcePoint" />
            <mxPoint x="320" y="340" as="targetPoint" />
          </mxGeometry>
        </mxCell>
        <mxCell id="prlDXMXP5_5S73fxrrut-59" value="" style="endArrow=none;html=1;rounded=0;entryX=0;entryY=0.5;entryDx=0;entryDy=0;exitX=1;exitY=0.5;exitDx=0;exitDy=0;" edge="1" parent="1" source="prlDXMXP5_5S73fxrrut-3" target="prlDXMXP5_5S73fxrrut-56">
          <mxGeometry width="50" height="50" relative="1" as="geometry">
            <mxPoint x="270" y="390" as="sourcePoint" />
            <mxPoint x="320" y="340" as="targetPoint" />
          </mxGeometry>
        </mxCell>
        <mxCell id="prlDXMXP5_5S73fxrrut-60" value="" style="endArrow=none;html=1;rounded=0;entryX=0.007;entryY=0.295;entryDx=0;entryDy=0;entryPerimeter=0;exitX=1;exitY=0.5;exitDx=0;exitDy=0;" edge="1" parent="1" source="prlDXMXP5_5S73fxrrut-3" target="prlDXMXP5_5S73fxrrut-57">
          <mxGeometry width="50" height="50" relative="1" as="geometry">
            <mxPoint x="270" y="390" as="sourcePoint" />
            <mxPoint x="320" y="340" as="targetPoint" />
          </mxGeometry>
        </mxCell>
        <mxCell id="prlDXMXP5_5S73fxrrut-61" value="&lt;u&gt;T_id&lt;/u&gt;" style="ellipse;whiteSpace=wrap;html=1;" vertex="1" parent="1">
          <mxGeometry x="480" y="140" width="60" height="40" as="geometry" />
        </mxCell>
        <mxCell id="prlDXMXP5_5S73fxrrut-63" value="T_Name" style="ellipse;whiteSpace=wrap;html=1;" vertex="1" parent="1">
          <mxGeometry x="435" y="180" width="60" height="40" as="geometry" />
        </mxCell>
        <mxCell id="prlDXMXP5_5S73fxrrut-64" value="Password" style="ellipse;whiteSpace=wrap;html=1;" vertex="1" parent="1">
          <mxGeometry x="550" y="130" width="60" height="40" as="geometry" />
        </mxCell>
        <mxCell id="prlDXMXP5_5S73fxrrut-65" value="Phone. No" style="ellipse;whiteSpace=wrap;html=1;" vertex="1" parent="1">
          <mxGeometry x="650" y="160" width="60" height="40" as="geometry" />
        </mxCell>
        <mxCell id="prlDXMXP5_5S73fxrrut-66" value="Email" style="ellipse;whiteSpace=wrap;html=1;" vertex="1" parent="1">
          <mxGeometry x="680" y="210" width="60" height="40" as="geometry" />
        </mxCell>
        <mxCell id="prlDXMXP5_5S73fxrrut-67" value="" style="endArrow=none;html=1;rounded=0;entryX=0;entryY=1;entryDx=0;entryDy=0;exitX=1;exitY=0;exitDx=0;exitDy=0;" edge="1" parent="1" source="prlDXMXP5_5S73fxrrut-2" target="prlDXMXP5_5S73fxrrut-65">
          <mxGeometry width="50" height="50" relative="1" as="geometry">
            <mxPoint x="280" y="390" as="sourcePoint" />
            <mxPoint x="330" y="340" as="targetPoint" />
          </mxGeometry>
        </mxCell>
        <mxCell id="prlDXMXP5_5S73fxrrut-68" value="" style="endArrow=none;html=1;rounded=0;entryX=0;entryY=1;entryDx=0;entryDy=0;exitX=1;exitY=0;exitDx=0;exitDy=0;" edge="1" parent="1" source="prlDXMXP5_5S73fxrrut-2" target="prlDXMXP5_5S73fxrrut-66">
          <mxGeometry width="50" height="50" relative="1" as="geometry">
            <mxPoint x="280" y="390" as="sourcePoint" />
            <mxPoint x="330" y="340" as="targetPoint" />
          </mxGeometry>
        </mxCell>
        <mxCell id="prlDXMXP5_5S73fxrrut-69" value="" style="endArrow=none;html=1;rounded=0;entryX=1;entryY=1;entryDx=0;entryDy=0;exitX=0.25;exitY=0;exitDx=0;exitDy=0;" edge="1" parent="1" source="prlDXMXP5_5S73fxrrut-2" target="prlDXMXP5_5S73fxrrut-63">
          <mxGeometry width="50" height="50" relative="1" as="geometry">
            <mxPoint x="280" y="390" as="sourcePoint" />
            <mxPoint x="330" y="340" as="targetPoint" />
          </mxGeometry>
        </mxCell>
        <mxCell id="prlDXMXP5_5S73fxrrut-70" value="" style="endArrow=none;html=1;rounded=0;entryX=1;entryY=1;entryDx=0;entryDy=0;" edge="1" parent="1" target="prlDXMXP5_5S73fxrrut-61">
          <mxGeometry width="50" height="50" relative="1" as="geometry">
            <mxPoint x="550" y="260" as="sourcePoint" />
            <mxPoint x="330" y="340" as="targetPoint" />
          </mxGeometry>
        </mxCell>
        <mxCell id="prlDXMXP5_5S73fxrrut-71" value="" style="endArrow=none;html=1;rounded=0;entryX=0.5;entryY=1;entryDx=0;entryDy=0;" edge="1" parent="1" target="prlDXMXP5_5S73fxrrut-64">
          <mxGeometry width="50" height="50" relative="1" as="geometry">
            <mxPoint x="550" y="260" as="sourcePoint" />
            <mxPoint x="330" y="340" as="targetPoint" />
          </mxGeometry>
        </mxCell>
        <mxCell id="prlDXMXP5_5S73fxrrut-72" value="Password" style="ellipse;whiteSpace=wrap;html=1;" vertex="1" parent="1">
          <mxGeometry x="-120" y="160" width="60" height="40" as="geometry" />
        </mxCell>
        <mxCell id="prlDXMXP5_5S73fxrrut-73" value="Email" style="ellipse;whiteSpace=wrap;html=1;" vertex="1" parent="1">
          <mxGeometry x="-50" y="160" width="60" height="40" as="geometry" />
        </mxCell>
        <mxCell id="prlDXMXP5_5S73fxrrut-74" value="Name" style="ellipse;whiteSpace=wrap;html=1;" vertex="1" parent="1">
          <mxGeometry x="-180" y="190" width="60" height="40" as="geometry" />
        </mxCell>
        <mxCell id="prlDXMXP5_5S73fxrrut-75" value="&lt;u&gt;id&lt;/u&gt;" style="ellipse;whiteSpace=wrap;html=1;" vertex="1" parent="1">
          <mxGeometry x="-180" y="240" width="60" height="40" as="geometry" />
        </mxCell>
        <mxCell id="prlDXMXP5_5S73fxrrut-76" value="" style="endArrow=none;html=1;rounded=0;entryX=1;entryY=0.5;entryDx=0;entryDy=0;exitX=0;exitY=0.5;exitDx=0;exitDy=0;" edge="1" parent="1" source="prlDXMXP5_5S73fxrrut-6" target="prlDXMXP5_5S73fxrrut-75">
          <mxGeometry width="50" height="50" relative="1" as="geometry">
            <mxPoint x="280" y="390" as="sourcePoint" />
            <mxPoint x="330" y="340" as="targetPoint" />
          </mxGeometry>
        </mxCell>
        <mxCell id="prlDXMXP5_5S73fxrrut-77" value="" style="endArrow=none;html=1;rounded=0;entryX=1;entryY=0.5;entryDx=0;entryDy=0;exitX=0;exitY=0.5;exitDx=0;exitDy=0;" edge="1" parent="1" source="prlDXMXP5_5S73fxrrut-6" target="prlDXMXP5_5S73fxrrut-74">
          <mxGeometry width="50" height="50" relative="1" as="geometry">
            <mxPoint x="280" y="390" as="sourcePoint" />
            <mxPoint x="330" y="340" as="targetPoint" />
          </mxGeometry>
        </mxCell>
        <mxCell id="prlDXMXP5_5S73fxrrut-78" value="" style="endArrow=none;html=1;rounded=0;entryX=0.693;entryY=1.065;entryDx=0;entryDy=0;entryPerimeter=0;exitX=0;exitY=0;exitDx=0;exitDy=0;" edge="1" parent="1" source="prlDXMXP5_5S73fxrrut-6" target="prlDXMXP5_5S73fxrrut-72">
          <mxGeometry width="50" height="50" relative="1" as="geometry">
            <mxPoint x="280" y="390" as="sourcePoint" />
            <mxPoint x="330" y="340" as="targetPoint" />
          </mxGeometry>
        </mxCell>
        <mxCell id="prlDXMXP5_5S73fxrrut-79" value="" style="endArrow=none;html=1;rounded=0;entryX=0.5;entryY=1;entryDx=0;entryDy=0;exitX=0;exitY=0;exitDx=0;exitDy=0;" edge="1" parent="1" source="prlDXMXP5_5S73fxrrut-6" target="prlDXMXP5_5S73fxrrut-73">
          <mxGeometry width="50" height="50" relative="1" as="geometry">
            <mxPoint x="280" y="390" as="sourcePoint" />
            <mxPoint x="330" y="340" as="targetPoint" />
          </mxGeometry>
        </mxCell>
        <mxCell id="prlDXMXP5_5S73fxrrut-80" value="&lt;u&gt;id&lt;/u&gt;" style="ellipse;whiteSpace=wrap;html=1;" vertex="1" parent="1">
          <mxGeometry x="-220" y="380" width="60" height="40" as="geometry" />
        </mxCell>
        <mxCell id="prlDXMXP5_5S73fxrrut-81" value="password" style="ellipse;whiteSpace=wrap;html=1;" vertex="1" parent="1">
          <mxGeometry x="-240" y="420" width="60" height="40" as="geometry" />
        </mxCell>
        <mxCell id="prlDXMXP5_5S73fxrrut-82" value="email" style="ellipse;whiteSpace=wrap;html=1;" vertex="1" parent="1">
          <mxGeometry x="-240" y="470" width="60" height="40" as="geometry" />
        </mxCell>
        <mxCell id="prlDXMXP5_5S73fxrrut-83" value="phone_no" style="ellipse;whiteSpace=wrap;html=1;" vertex="1" parent="1">
          <mxGeometry x="-240" y="520" width="60" height="40" as="geometry" />
        </mxCell>
        <mxCell id="prlDXMXP5_5S73fxrrut-84" value="S_name" style="ellipse;whiteSpace=wrap;html=1;" vertex="1" parent="1">
          <mxGeometry x="-180" y="330" width="60" height="40" as="geometry" />
        </mxCell>
        <mxCell id="prlDXMXP5_5S73fxrrut-85" value="" style="endArrow=none;html=1;rounded=0;entryX=1;entryY=1;entryDx=0;entryDy=0;exitX=0;exitY=0;exitDx=0;exitDy=0;" edge="1" parent="1" source="prlDXMXP5_5S73fxrrut-1" target="prlDXMXP5_5S73fxrrut-84">
          <mxGeometry width="50" height="50" relative="1" as="geometry">
            <mxPoint x="280" y="440" as="sourcePoint" />
            <mxPoint x="330" y="390" as="targetPoint" />
          </mxGeometry>
        </mxCell>
        <mxCell id="prlDXMXP5_5S73fxrrut-86" value="" style="endArrow=none;html=1;rounded=0;entryX=1;entryY=1;entryDx=0;entryDy=0;exitX=0;exitY=0;exitDx=0;exitDy=0;" edge="1" parent="1" source="prlDXMXP5_5S73fxrrut-1" target="prlDXMXP5_5S73fxrrut-80">
          <mxGeometry width="50" height="50" relative="1" as="geometry">
            <mxPoint x="280" y="440" as="sourcePoint" />
            <mxPoint x="330" y="390" as="targetPoint" />
          </mxGeometry>
        </mxCell>
        <mxCell id="prlDXMXP5_5S73fxrrut-87" value="" style="endArrow=none;html=1;rounded=0;entryX=1;entryY=0.5;entryDx=0;entryDy=0;exitX=0;exitY=0;exitDx=0;exitDy=0;" edge="1" parent="1" source="prlDXMXP5_5S73fxrrut-1" target="prlDXMXP5_5S73fxrrut-81">
          <mxGeometry width="50" height="50" relative="1" as="geometry">
            <mxPoint x="280" y="440" as="sourcePoint" />
            <mxPoint x="330" y="390" as="targetPoint" />
          </mxGeometry>
        </mxCell>
        <mxCell id="prlDXMXP5_5S73fxrrut-88" value="" style="endArrow=none;html=1;rounded=0;entryX=1;entryY=0.5;entryDx=0;entryDy=0;exitX=0;exitY=0;exitDx=0;exitDy=0;" edge="1" parent="1" source="prlDXMXP5_5S73fxrrut-1" target="prlDXMXP5_5S73fxrrut-82">
          <mxGeometry width="50" height="50" relative="1" as="geometry">
            <mxPoint x="280" y="440" as="sourcePoint" />
            <mxPoint x="330" y="390" as="targetPoint" />
          </mxGeometry>
        </mxCell>
        <mxCell id="prlDXMXP5_5S73fxrrut-89" value="" style="endArrow=none;html=1;rounded=0;entryX=1;entryY=0.5;entryDx=0;entryDy=0;exitX=0;exitY=0.25;exitDx=0;exitDy=0;" edge="1" parent="1" source="prlDXMXP5_5S73fxrrut-1" target="prlDXMXP5_5S73fxrrut-83">
          <mxGeometry width="50" height="50" relative="1" as="geometry">
            <mxPoint x="280" y="440" as="sourcePoint" />
            <mxPoint x="330" y="390" as="targetPoint" />
          </mxGeometry>
        </mxCell>
        <mxCell id="prlDXMXP5_5S73fxrrut-91" value="Scorepoint" style="ellipse;whiteSpace=wrap;html=1;" vertex="1" parent="1">
          <mxGeometry x="20" y="720" width="60" height="40" as="geometry" />
        </mxCell>
        <mxCell id="prlDXMXP5_5S73fxrrut-94" value="&lt;u&gt;Quiz id&lt;/u&gt;" style="ellipse;whiteSpace=wrap;html=1;" vertex="1" parent="1">
          <mxGeometry x="410" y="730" width="60" height="40" as="geometry" />
        </mxCell>
        <mxCell id="prlDXMXP5_5S73fxrrut-95" value="Quiz Name" style="ellipse;whiteSpace=wrap;html=1;" vertex="1" parent="1">
          <mxGeometry x="495" y="730" width="60" height="40" as="geometry" />
        </mxCell>
        <mxCell id="prlDXMXP5_5S73fxrrut-96" value="" style="endArrow=none;html=1;rounded=0;entryX=0.5;entryY=1;entryDx=0;entryDy=0;exitX=0.5;exitY=0;exitDx=0;exitDy=0;" edge="1" parent="1" source="prlDXMXP5_5S73fxrrut-94" target="prlDXMXP5_5S73fxrrut-5">
          <mxGeometry width="50" height="50" relative="1" as="geometry">
            <mxPoint x="270" y="740" as="sourcePoint" />
            <mxPoint x="320" y="690" as="targetPoint" />
          </mxGeometry>
        </mxCell>
        <mxCell id="prlDXMXP5_5S73fxrrut-97" value="" style="endArrow=none;html=1;rounded=0;entryX=0.5;entryY=1;entryDx=0;entryDy=0;exitX=0.377;exitY=-0.025;exitDx=0;exitDy=0;exitPerimeter=0;" edge="1" parent="1" source="prlDXMXP5_5S73fxrrut-95" target="prlDXMXP5_5S73fxrrut-5">
          <mxGeometry width="50" height="50" relative="1" as="geometry">
            <mxPoint x="270" y="740" as="sourcePoint" />
            <mxPoint x="320" y="690" as="targetPoint" />
          </mxGeometry>
        </mxCell>
        <mxCell id="prlDXMXP5_5S73fxrrut-98" value="" style="endArrow=none;html=1;rounded=0;entryX=0.5;entryY=1;entryDx=0;entryDy=0;exitX=0.5;exitY=0;exitDx=0;exitDy=0;" edge="1" parent="1" source="prlDXMXP5_5S73fxrrut-91" target="prlDXMXP5_5S73fxrrut-4">
          <mxGeometry width="50" height="50" relative="1" as="geometry">
            <mxPoint x="270" y="740" as="sourcePoint" />
            <mxPoint x="320" y="690" as="targetPoint" />
          </mxGeometry>
        </mxCell>
      </root>
    </mxGraphModel>
  </diagram>
</mxfile>
